<?xml version="1.0"?>
<svg width="640" height="480" xmlns="http://www.w3.org/2000/svg" xmlns:svg="http://www.w3.org/2000/svg">
 <!-- Created with SVG-edit - http://svg-edit.googlecode.com/ -->

 <g>
  <title>Layer 1</title>
  <text stroke="#000000" transform="matrix(13.410186746210977,0,0,13.122268158293634,-740.7162971788325,-890.2867805671153) " xml:space="preserve" text-anchor="middle" font-family="serif" font-size="24" id="svg_1" y="94" x="79.07457" stroke-width="0" fill="#000000">ND</text>
  <polygon stroke-width="0" stroke="#000000" points="379,30.911190032958984 390.7765808105469,64.79092025756836 426.63726806640625,65.5217056274414 398.05491638183594,87.19132232666016 408.44146728515625,121.52269744873047 379,101.0355224609375 349.55853271484375,121.52269744873047 359.94508361816406,87.19132232666016 331.3627014160156,65.5217056274414 367.2234191894531,64.79092025756836 379,30.911190032958984 390.7765808105469,64.79092025756836 " strokeWidth="0" strokecolor="#000000" fill="#d3d308" orient="point" r2="20.035524" r="50.08881" point="5" shape="star" id="svg_2" cy="45" cx="122"/>
  <polygon stroke-width="0" stroke="#000000" points="519,102.98766326904297 523.2349548339844,115.17108917236328 536.1307373046875,115.43388366699219 525.852294921875,123.22644805908203 529.5873718261719,135.5722885131836 519,128.2049331665039 508.41259765625,135.5722885131836 512.147705078125,123.22644805908203 501.8692626953125,115.43388366699219 514.7650451660156,115.17108917236328 519,102.98766326904297 523.2349548339844,115.17108917236328 " strokeWidth="0" strokecolor="#000000" fill="#d3d308" orient="point" r2="7.204937" r="18.012341" point="5" shape="star" id="svg_4" cy="43" cx="125"/>
  <polygon stroke-width="0" stroke="#000000" points="460,59.66666793823242 467.837158203125,82.21310806274414 491.701904296875,82.69943237304688 472.6807861328125,97.12022399902344 479.59283447265625,119.96723175048828 460,106.33332824707031 440.40716552734375,119.96723175048828 447.3192138671875,97.12022399902344 428.298095703125,82.69943237304688 452.162841796875,82.21310806274414 460,59.66666793823242 467.837158203125,82.21310806274414 " strokeWidth="0" strokecolor="#000000" fill="#d3d308" orient="point" r2="13.333333" r="33.333333" point="5" shape="star" id="svg_5" cy="44" cx="129"/>
 </g>
</svg>